<?xml version="1.0" encoding="utf-8"?>
<!-- Generator: Adobe Illustrator 16.0.0, SVG Export Plug-In . SVG Version: 6.00 Build 0)  -->
<!DOCTYPE svg PUBLIC "-//W3C//DTD SVG 1.1//EN" "http://www.w3.org/Graphics/SVG/1.1/DTD/svg11.dtd">
<svg version="1.1" id="Layer_1" xmlns="http://www.w3.org/2000/svg" xmlns:xlink="http://www.w3.org/1999/xlink" x="0px" y="0px"
	 width="57px" height="36.667px" viewBox="0 0 57 36.667" enable-background="new 0 0 57 36.667" xml:space="preserve">
<g>
	<path fill="#231F20" d="M43.637,4.445h-0.701L40.46,7.401l-2.478-2.956h-0.7l-2.481,2.961l-2.481-2.961h-0.701l-2.473,2.952
		l-2.474-2.952H25.97l-2.48,2.961l-2.482-2.961h-0.701l-5.523,6.594H3.7v0.915h11.083l5.527,6.593h0.701l2.48-2.961l2.482,2.961
		h0.701l2.473-2.952l2.474,2.952h0.701l2.48-2.961l2.482,2.961h0.7l2.477-2.956l2.478,2.956h0.7l5.66-6.757v-0.587L43.637,4.445z
		 M37.632,5.451l2.231,2.662l-2.234,2.667l-2.231-2.662L37.632,5.451z M40.46,8.825l2.239,2.671l-2.237,2.67l-2.239-2.671
		L40.46,8.825z M37.035,11.497l-2.232,2.665l-2.234-2.666l2.233-2.666L37.035,11.497z M31.969,5.451l2.236,2.667l-2.228,2.658
		l-2.235-2.667L31.969,5.451z M31.388,11.497l-2.241,2.674l-2.242-2.675l2.241-2.675L31.388,11.497z M26.321,5.451l2.228,2.658
		l-2.234,2.667l-2.228-2.658L26.321,5.451z M25.724,11.497l-2.232,2.665l-2.234-2.666l2.233-2.666L25.724,11.497z M20.661,17.541
		l-5.067-6.045l5.064-6.045l2.236,2.667l-2.583,3.084l0,0.587l2.584,3.084L20.661,17.541z M26.324,17.541l-2.236-2.667l2.227-2.658
		l2.236,2.667L26.324,17.541z M31.972,17.541l-2.229-2.658l2.234-2.667l2.229,2.659L31.972,17.541z M37.636,17.541l-2.236-2.667
		l2.229-2.662l2.236,2.668L37.636,17.541z M43.29,17.541l-2.231-2.662l2.587-3.089v-0.587l-2.589-3.09l2.229-2.662l5.066,6.045
		L43.29,17.541z"/>
	<g>
		<g>
			<path fill="#231F20" d="M15.793,21.973c0.179-0.069,1.975-0.041,2.177-0.041h0.427c0.249,0,0.458,0.046,0.627,0.137
				c0.169,0.093,0.305,0.214,0.406,0.365c0.102,0.152,0.167,0.329,0.2,0.531c0.032,0.202,0.03,0.413-0.007,0.634l-1.061,6.036
				c-0.037,0.229-0.12,0.442-0.248,0.641c-0.128,0.197-0.285,0.372-0.469,0.523s-0.388,0.271-0.613,0.358
				c-0.225,0.087-0.457,0.131-0.696,0.131h-3.348l1.557-8.806c0.018-0.102,0.073-0.212,0.166-0.331
				c0.092-0.119,0.229-0.179,0.413-0.179H15.793z M18.074,23.412c-0.096-0.114-0.223-0.172-0.379-0.172h-1.088
				c-0.157,0-0.302,0.058-0.435,0.172c-0.133,0.115-0.213,0.251-0.241,0.406l-1.102,6.202h1.667c0.156,0,0.303-0.058,0.441-0.173
				c0.138-0.115,0.22-0.25,0.247-0.406l0.993-5.623C18.205,23.663,18.17,23.527,18.074,23.412z"/>
			<path fill="#231F20" d="M21.98,30.736c-0.027,0.157-0.103,0.287-0.227,0.394c-0.124,0.104-0.265,0.158-0.42,0.158h-0.317
				c-0.156,0-0.278-0.054-0.365-0.158c-0.087-0.106-0.117-0.236-0.09-0.394l1.461-8.213c0.027-0.156,0.103-0.287,0.227-0.393
				s0.264-0.158,0.42-0.158h0.317c0.156,0,0.277,0.053,0.365,0.158s0.117,0.236,0.09,0.393L21.98,30.736z"/>
			<path fill="#231F20" d="M28.787,30.792c-0.027,0.156-0.103,0.277-0.227,0.365c-0.125,0.087-0.265,0.131-0.421,0.131h-4.038
				l1.557-8.765c0.028-0.156,0.104-0.287,0.228-0.393c0.124-0.105,0.264-0.158,0.42-0.158h0.868l-1.419,8.048h2.618
				c0.156,0,0.277,0.043,0.365,0.13c0.087,0.088,0.117,0.21,0.09,0.366L28.787,30.792z"/>
			<path fill="#231F20" d="M35.484,22.745c-0.027,0.155-0.102,0.276-0.22,0.364c-0.12,0.087-0.258,0.131-0.414,0.131h-2.398
				l-0.481,2.756h2.08c0.156,0,0.275,0.044,0.358,0.131c0.083,0.088,0.115,0.209,0.097,0.365l-0.041,0.275
				c-0.019,0.156-0.092,0.278-0.221,0.365c-0.128,0.088-0.271,0.132-0.427,0.132h-2.081l-0.482,2.756h2.591
				c0.155,0,0.277,0.043,0.365,0.13c0.087,0.088,0.116,0.21,0.089,0.366l-0.055,0.275c-0.027,0.156-0.099,0.277-0.214,0.365
				c-0.114,0.087-0.25,0.131-0.406,0.131h-4.01l1.64-9.315h4.369L35.484,22.745z"/>
			<path fill="#231F20" d="M41.549,30.736c-0.028,0.157-0.104,0.287-0.228,0.394c-0.125,0.104-0.265,0.158-0.421,0.158h-0.317
				c-0.156,0-0.277-0.054-0.364-0.158c-0.088-0.106-0.118-0.236-0.09-0.394c0.726-4.106,1.057-6.086,0.992-5.938
				c-0.064,0.146-0.17,0.321-0.317,0.523l-1.172,1.626H39.26c-0.109,0-0.197-0.032-0.262-0.097s-0.105-0.129-0.123-0.192
				l-0.497-1.337c-0.073-0.202-0.129-0.45-0.165-0.745l-1.088,6.16c-0.028,0.157-0.104,0.287-0.229,0.394
				c-0.124,0.104-0.264,0.158-0.42,0.158h-0.317c-0.156,0-0.277-0.054-0.365-0.158c-0.087-0.106-0.116-0.236-0.089-0.394
				l1.447-8.199c0.027-0.156,0.094-0.289,0.199-0.399s0.241-0.165,0.406-0.165h0.345c0.11,0,0.197,0.03,0.262,0.09
				s0.119,0.14,0.166,0.24l1.033,2.756l1.999-2.756c0.146-0.22,0.335-0.33,0.564-0.33h0.979L41.549,30.736z"/>
			<path fill="#231F20" d="M48.686,31.006c-0.101,0.124-0.22,0.204-0.357,0.241l-0.289,0.068c-0.157,0.036-0.288,0.019-0.394-0.056
				c-0.105-0.073-0.163-0.183-0.172-0.33l-0.151-2.246h-2.108l-0.95,2.246c-0.065,0.147-0.164,0.255-0.297,0.323
				c-0.134,0.069-0.27,0.09-0.407,0.062l-0.316-0.068c-0.146-0.027-0.241-0.111-0.282-0.249c-0.042-0.137-0.039-0.271,0.007-0.399
				l3.417-8.227c0.064-0.146,0.153-0.25,0.269-0.31s0.246-0.09,0.393-0.09h1.227l0.552,8.626
				C48.833,30.746,48.787,30.881,48.686,31.006z M47.143,25.721c-0.009-0.211-0.009-0.464,0-0.758
				c0.01-0.294,0.021-0.572,0.035-0.834c0.014-0.262,0.038-0.575,0.075-0.943c-0.027,0-0.066,0.092-0.117,0.275
				c-0.05,0.184-0.115,0.406-0.192,0.668c-0.078,0.262-0.166,0.54-0.262,0.834c-0.097,0.294-0.187,0.547-0.27,0.758l-0.689,1.694
				h1.53L47.143,25.721z"/>
		</g>
	</g>
</g>
</svg>
