<?xml version="1.0" encoding="utf-8"?>
<!-- Generator: Adobe Illustrator 16.0.0, SVG Export Plug-In . SVG Version: 6.00 Build 0)  -->
<!DOCTYPE svg PUBLIC "-//W3C//DTD SVG 1.1//EN" "http://www.w3.org/Graphics/SVG/1.1/DTD/svg11.dtd">
<svg version="1.1" id="Layer_1" xmlns="http://www.w3.org/2000/svg" xmlns:xlink="http://www.w3.org/1999/xlink" x="0px" y="0px"
	 width="57px" height="36.667px" viewBox="0 0 57 36.667" enable-background="new 0 0 57 36.667" xml:space="preserve">
<g>
	<path fill="#FFFFFF" stroke="#231F20" stroke-width="0.001" stroke-miterlimit="10" d="M43.637,4.445h-0.701L40.46,7.401
		l-2.478-2.956h-0.7l-2.481,2.961l-2.48-2.961h-0.701l-2.473,2.952l-2.475-2.952H25.97l-2.48,2.961l-2.482-2.961h-0.701
		l-5.523,6.594H3.7v0.915h11.083l5.527,6.593h0.701l2.48-2.961l2.482,2.961h0.701l2.473-2.952l2.475,2.952h0.701l2.479-2.961
		l2.482,2.961h0.7l2.477-2.956l2.479,2.956h0.699l5.66-6.757v-0.587L43.637,4.445z M37.632,5.451l2.231,2.662l-2.234,2.667
		l-2.23-2.662L37.632,5.451z M40.46,8.825l2.239,2.671l-2.237,2.67l-2.239-2.671L40.46,8.825z M37.035,11.497l-2.232,2.665
		l-2.234-2.666l2.233-2.666L37.035,11.497z M31.969,5.451l2.236,2.667l-2.229,2.658l-2.234-2.667L31.969,5.451z M31.389,11.497
		l-2.242,2.674l-2.242-2.675l2.242-2.675L31.389,11.497z M26.321,5.451l2.228,2.658l-2.234,2.667l-2.228-2.658L26.321,5.451z
		 M25.724,11.497l-2.232,2.665l-2.234-2.666l2.233-2.666L25.724,11.497z M20.661,17.541l-5.067-6.045l5.064-6.045l2.236,2.667
		l-2.583,3.084v0.587l2.584,3.084L20.661,17.541z M26.324,17.541l-2.236-2.667l2.227-2.658l2.236,2.667L26.324,17.541z
		 M31.973,17.541l-2.229-2.658l2.233-2.667l2.229,2.659L31.973,17.541z M37.636,17.541L35.4,14.874l2.229-2.662l2.236,2.668
		L37.636,17.541z M43.29,17.541l-2.231-2.662l2.588-3.089v-0.587l-2.59-3.09l2.229-2.662l5.065,6.045L43.29,17.541z"/>
	<g>
		<g>
			<path fill="#FFFFFF" stroke="#231F20" stroke-width="0.001" stroke-miterlimit="10" d="M15.793,21.973
				c0.179-0.069,1.975-0.041,2.177-0.041h0.427c0.249,0,0.458,0.046,0.627,0.137c0.169,0.093,0.305,0.214,0.406,0.365
				c0.102,0.151,0.167,0.329,0.2,0.53c0.032,0.203,0.03,0.414-0.007,0.635l-1.061,6.035c-0.037,0.23-0.12,0.443-0.248,0.642
				c-0.128,0.197-0.285,0.372-0.469,0.522c-0.184,0.152-0.388,0.271-0.613,0.359c-0.225,0.086-0.457,0.131-0.696,0.131h-3.348
				l1.557-8.807c0.018-0.102,0.073-0.212,0.166-0.331c0.092-0.118,0.229-0.179,0.413-0.179L15.793,21.973L15.793,21.973z
				 M18.074,23.412c-0.096-0.113-0.223-0.172-0.379-0.172h-1.088c-0.157,0-0.302,0.059-0.435,0.172
				c-0.133,0.115-0.213,0.252-0.241,0.406l-1.102,6.202h1.667c0.156,0,0.303-0.058,0.441-0.173s0.22-0.25,0.247-0.406l0.993-5.623
				C18.205,23.664,18.17,23.527,18.074,23.412z"/>
			<path fill="#FFFFFF" stroke="#231F20" stroke-width="0.001" stroke-miterlimit="10" d="M21.98,30.736
				c-0.027,0.157-0.103,0.287-0.227,0.395c-0.124,0.104-0.265,0.158-0.42,0.158h-0.317c-0.156,0-0.278-0.055-0.365-0.158
				c-0.087-0.106-0.117-0.236-0.09-0.395l1.461-8.213c0.027-0.156,0.103-0.287,0.227-0.393c0.124-0.106,0.264-0.158,0.42-0.158
				h0.317c0.156,0,0.277,0.053,0.365,0.158c0.088,0.104,0.117,0.236,0.09,0.393L21.98,30.736z"/>
			<path fill="#FFFFFF" stroke="#231F20" stroke-width="0.001" stroke-miterlimit="10" d="M28.787,30.792
				c-0.027,0.156-0.103,0.276-0.227,0.365c-0.125,0.086-0.265,0.131-0.421,0.131h-4.038l1.557-8.766
				c0.028-0.156,0.104-0.287,0.228-0.393c0.124-0.105,0.264-0.158,0.42-0.158h0.868l-1.419,8.048h2.618
				c0.156,0,0.277,0.043,0.365,0.13c0.087,0.088,0.117,0.21,0.09,0.366L28.787,30.792z"/>
			<path fill="#FFFFFF" stroke="#231F20" stroke-width="0.001" stroke-miterlimit="10" d="M35.484,22.746
				c-0.027,0.154-0.103,0.275-0.221,0.363c-0.119,0.087-0.258,0.131-0.414,0.131h-2.397l-0.481,2.756h2.08
				c0.156,0,0.275,0.045,0.358,0.131c0.083,0.088,0.114,0.209,0.097,0.365l-0.041,0.275c-0.02,0.156-0.092,0.277-0.221,0.365
				c-0.128,0.088-0.271,0.132-0.428,0.132h-2.08l-0.482,2.756h2.592c0.154,0,0.276,0.043,0.364,0.13
				c0.087,0.088,0.116,0.21,0.089,0.366l-0.055,0.274c-0.027,0.156-0.1,0.277-0.215,0.365c-0.113,0.088-0.25,0.131-0.405,0.131
				h-4.01l1.64-9.314h4.369L35.484,22.746z"/>
			<path fill="#FFFFFF" stroke="#231F20" stroke-width="0.001" stroke-miterlimit="10" d="M41.549,30.736
				c-0.027,0.157-0.104,0.287-0.229,0.395c-0.125,0.104-0.264,0.158-0.42,0.158h-0.317c-0.156,0-0.276-0.055-0.364-0.158
				c-0.088-0.106-0.117-0.236-0.09-0.395c0.727-4.105,1.057-6.086,0.992-5.938c-0.064,0.146-0.17,0.32-0.316,0.522l-1.173,1.626
				H39.26c-0.109,0-0.197-0.031-0.262-0.097s-0.105-0.129-0.123-0.192l-0.497-1.337c-0.073-0.202-0.129-0.45-0.165-0.745
				l-1.088,6.16c-0.027,0.157-0.104,0.287-0.229,0.395c-0.125,0.104-0.265,0.158-0.42,0.158h-0.317
				c-0.156,0-0.277-0.055-0.365-0.158c-0.087-0.106-0.116-0.236-0.089-0.395l1.447-8.199c0.027-0.156,0.094-0.289,0.199-0.398
				c0.104-0.11,0.24-0.165,0.405-0.165h0.345c0.11,0,0.197,0.03,0.262,0.09c0.066,0.06,0.119,0.14,0.166,0.24l1.033,2.756l2-2.756
				c0.146-0.22,0.334-0.33,0.563-0.33h0.979L41.549,30.736z"/>
			<path fill="#FFFFFF" stroke="#231F20" stroke-width="0.001" stroke-miterlimit="10" d="M48.686,31.005
				c-0.101,0.125-0.22,0.205-0.356,0.242l-0.289,0.067c-0.157,0.036-0.288,0.019-0.394-0.056c-0.105-0.073-0.164-0.184-0.172-0.33
				l-0.151-2.246h-2.108l-0.949,2.246c-0.065,0.146-0.164,0.255-0.298,0.322c-0.134,0.069-0.27,0.09-0.407,0.062l-0.315-0.068
				c-0.146-0.027-0.241-0.111-0.282-0.248c-0.042-0.138-0.039-0.271,0.008-0.399l3.416-8.228c0.064-0.146,0.153-0.25,0.27-0.31
				c0.115-0.06,0.246-0.09,0.393-0.09h1.227l0.553,8.626C48.833,30.746,48.787,30.88,48.686,31.005z M47.143,25.721
				c-0.009-0.212-0.009-0.464,0-0.759c0.01-0.293,0.021-0.571,0.035-0.834c0.014-0.262,0.038-0.574,0.075-0.942
				c-0.026,0-0.065,0.092-0.117,0.274c-0.05,0.185-0.114,0.406-0.192,0.668c-0.077,0.263-0.166,0.541-0.262,0.834
				c-0.097,0.295-0.187,0.547-0.27,0.759l-0.689,1.694h1.53L47.143,25.721z"/>
		</g>
	</g>
</g>
</svg>
