<?xml version="1.0" encoding="utf-8"?>
<!-- Generator: Adobe Illustrator 16.0.0, SVG Export Plug-In . SVG Version: 6.00 Build 0)  -->
<!DOCTYPE svg PUBLIC "-//W3C//DTD SVG 1.1//EN" "http://www.w3.org/Graphics/SVG/1.1/DTD/svg11.dtd">
<svg version="1.1" id="Layer_1" xmlns="http://www.w3.org/2000/svg" xmlns:xlink="http://www.w3.org/1999/xlink" x="0px" y="0px"
	 width="101.333px" height="22.167px" viewBox="0 0 101.333 22.167" enable-background="new 0 0 101.333 22.167"
	 xml:space="preserve">
<g>
	<path fill="#3A3A3A" d="M43.637,4.445h-0.701L40.46,7.401l-2.478-2.956h-0.7l-2.481,2.961l-2.48-2.961H31.62l-2.473,2.952
		l-2.475-2.952H25.97l-2.48,2.961l-2.482-2.961h-0.701l-5.523,6.594H3.7v0.916h11.083l5.527,6.592h0.701l2.48-2.961l2.482,2.961
		h0.701l2.473-2.95l2.475,2.95h0.701l2.479-2.961l2.482,2.961h0.7l2.477-2.955l2.479,2.955h0.699l5.66-6.756v-0.586L43.637,4.445z
		 M37.632,5.451l2.231,2.662l-2.234,2.667l-2.23-2.662L37.632,5.451z M40.46,8.825l2.239,2.671l-2.237,2.669l-2.239-2.67
		L40.46,8.825z M37.035,11.497l-2.232,2.665l-2.234-2.666l2.233-2.666L37.035,11.497z M31.969,5.451l2.236,2.667l-2.229,2.658
		l-2.234-2.667L31.969,5.451z M31.389,11.497l-2.242,2.674l-2.242-2.675l2.242-2.675L31.389,11.497z M26.321,5.451l2.228,2.658
		l-2.234,2.667l-2.228-2.658L26.321,5.451z M25.724,11.497l-2.232,2.665l-2.234-2.666l2.233-2.666L25.724,11.497z M20.661,17.541
		l-5.067-6.043l5.064-6.045l2.236,2.667l-2.583,3.084v0.585l2.584,3.084L20.661,17.541z M26.324,17.541l-2.236-2.666l2.227-2.658
		l2.236,2.666L26.324,17.541z M31.973,17.541l-2.229-2.658l2.233-2.666l2.229,2.658L31.973,17.541z M37.637,17.541L35.4,14.875
		l2.229-2.662l2.236,2.668L37.637,17.541z M43.29,17.541l-2.231-2.662l2.588-3.088v-0.586l-2.59-3.09l2.229-2.662l5.065,6.045
		L43.29,17.541z"/>
	<g>
		<g>
			<path fill="#3A3A3A" d="M54.344,5.851c0.227-0.087,2.498-0.052,2.757-0.052h0.539c0.315,0,0.581,0.058,0.793,0.173
				c0.216,0.117,0.388,0.271,0.515,0.462c0.131,0.192,0.213,0.417,0.254,0.671c0.041,0.257,0.039,0.524-0.009,0.804l-1.343,7.639
				c-0.047,0.293-0.153,0.562-0.314,0.812c-0.162,0.25-0.358,0.472-0.593,0.662c-0.233,0.192-0.491,0.345-0.776,0.455
				c-0.285,0.108-0.578,0.166-0.881,0.166h-4.24l1.972-11.149c0.023-0.128,0.093-0.268,0.21-0.419
				c0.116-0.149,0.291-0.226,0.522-0.226L54.344,5.851L54.344,5.851z M57.231,7.672c-0.121-0.144-0.281-0.218-0.479-0.218h-1.379
				c-0.197,0-0.383,0.074-0.552,0.218c-0.169,0.146-0.271,0.319-0.305,0.514l-1.396,7.853h2.109c0.198,0,0.385-0.074,0.561-0.22
				c0.174-0.146,0.276-0.315,0.312-0.514l1.258-7.119C57.396,7.991,57.353,7.818,57.231,7.672z"/>
			<path fill="#3A3A3A" d="M62.176,16.945c-0.034,0.199-0.131,0.363-0.287,0.5c-0.157,0.131-0.335,0.2-0.532,0.2h-0.401
				c-0.197,0-0.352-0.069-0.463-0.2c-0.106-0.135-0.146-0.299-0.113-0.5L62.23,6.548c0.034-0.198,0.131-0.364,0.288-0.497
				c0.156-0.135,0.335-0.2,0.531-0.2h0.402c0.195,0,0.35,0.067,0.461,0.2c0.11,0.132,0.146,0.299,0.113,0.497L62.176,16.945z"/>
			<path fill="#3A3A3A" d="M70.793,17.016c-0.035,0.198-0.131,0.351-0.287,0.462c-0.157,0.109-0.336,0.166-0.533,0.166h-5.111
				l1.971-11.097c0.035-0.198,0.133-0.364,0.291-0.497c0.154-0.133,0.332-0.2,0.53-0.2h1.099l-1.797,10.188h3.314
				c0.197,0,0.352,0.053,0.462,0.164c0.11,0.109,0.147,0.266,0.114,0.463L70.793,17.016z"/>
			<path fill="#3A3A3A" d="M79.272,6.829c-0.035,0.195-0.13,0.349-0.279,0.46c-0.15,0.11-0.326,0.166-0.522,0.166h-3.035
				l-0.608,3.489h2.633c0.197,0,0.35,0.057,0.455,0.166c0.104,0.111,0.145,0.265,0.121,0.462l-0.053,0.349
				c-0.023,0.197-0.115,0.351-0.277,0.461c-0.162,0.111-0.346,0.168-0.543,0.168h-2.634l-0.61,3.488H77.2
				c0.194,0,0.352,0.055,0.461,0.164c0.109,0.11,0.146,0.266,0.112,0.465l-0.067,0.347c-0.035,0.198-0.127,0.351-0.272,0.462
				c-0.144,0.111-0.315,0.166-0.513,0.166h-5.08L73.917,5.85h5.53L79.272,6.829z"/>
			<path fill="#3A3A3A" d="M86.95,16.945c-0.035,0.199-0.132,0.363-0.289,0.5c-0.158,0.131-0.334,0.2-0.531,0.2h-0.401
				c-0.197,0-0.351-0.069-0.461-0.2c-0.111-0.135-0.147-0.299-0.113-0.5c0.919-5.197,1.339-7.705,1.257-7.517
				c-0.082,0.185-0.216,0.406-0.4,0.662l-1.484,2.059h-0.471c-0.139,0-0.25-0.04-0.331-0.123c-0.082-0.083-0.134-0.163-0.156-0.243
				l-0.629-1.693c-0.093-0.256-0.163-0.57-0.209-0.943l-1.378,7.799c-0.034,0.199-0.131,0.363-0.289,0.5
				c-0.158,0.132-0.335,0.2-0.531,0.2h-0.402c-0.195,0-0.351-0.068-0.461-0.2c-0.109-0.135-0.146-0.299-0.111-0.5l1.832-10.38
				c0.033-0.198,0.117-0.366,0.252-0.504c0.133-0.14,0.305-0.209,0.513-0.209h0.438c0.14,0,0.25,0.039,0.332,0.114
				c0.084,0.076,0.148,0.177,0.209,0.303l1.309,3.49l2.532-3.49c0.185-0.277,0.423-0.417,0.713-0.417h1.239L86.95,16.945z"/>
			<path fill="#3A3A3A" d="M95.984,17.287c-0.127,0.158-0.278,0.26-0.45,0.307l-0.367,0.084c-0.199,0.048-0.362,0.023-0.498-0.068
				c-0.133-0.093-0.207-0.23-0.217-0.418l-0.19-2.844H91.59l-1.2,2.844c-0.083,0.188-0.207,0.323-0.377,0.408
				c-0.171,0.088-0.345,0.113-0.517,0.078l-0.398-0.086c-0.186-0.034-0.307-0.141-0.355-0.313c-0.055-0.174-0.051-0.344,0.01-0.505
				l4.324-10.416c0.082-0.184,0.193-0.316,0.342-0.392c0.146-0.075,0.312-0.114,0.496-0.114h1.553l0.701,10.92
				C96.17,16.957,96.113,17.126,95.984,17.287z M94.031,10.596c-0.012-0.268-0.012-0.587,0-0.96
				c0.013-0.371,0.027-0.724,0.044-1.056c0.018-0.331,0.049-0.727,0.096-1.193c-0.031,0-0.082,0.116-0.146,0.348
				c-0.063,0.233-0.146,0.514-0.244,0.845c-0.098,0.333-0.211,0.685-0.331,1.056c-0.121,0.373-0.236,0.692-0.342,0.96l-0.873,2.146
				h1.938L94.031,10.596z"/>
		</g>
	</g>
</g>
</svg>
